<svg width="31" height="30" viewBox="0 0 31 30" fill="none" xmlns="http://www.w3.org/2000/svg">
<g id="coffee-cup 1" clip-path="url(#clip0_2_1469)">
<g id="Group">
<g id="Group_2">
<path id="Vector" d="M22.5474 21.1735C22.2251 21.1389 21.937 21.3722 21.9026 21.6939L21.1414 28.8281H10.6363L9.88541 21.7898C9.85107 21.468 9.5625 21.2347 9.24064 21.2694C8.91885 21.3037 8.68588 21.5924 8.72021 21.9141L9.52699 29.4762C9.55875 29.7741 9.81006 30 10.1096 30H21.6683C21.9678 30 22.2191 29.7741 22.2509 29.4762L23.0679 21.8183C23.1022 21.4965 22.8691 21.2078 22.5474 21.1735Z" fill="#D8D8D8"/>
<path id="Vector_2" d="M25.2634 4.17715H23.9524L22.9202 1.63951C22.8304 1.41873 22.6158 1.27436 22.3774 1.27436H18.7825L17.7757 0.187734C17.6648 0.0680273 17.509 0 17.3459 0H14.4319C14.2687 0 14.113 0.0680273 14.0021 0.187734L12.9953 1.27436H9.40038C9.16202 1.27436 8.94745 1.41873 8.85762 1.63951L7.82538 4.17715H6.51434C6.19073 4.17715 5.92841 4.43947 5.92841 4.76309V7.28104C5.92841 7.60465 6.19073 7.86697 6.51434 7.86697H7.22145L7.95704 14.7616C7.99137 15.0834 8.27995 15.3166 8.6018 15.2821C8.9236 15.2477 9.15657 14.959 9.12223 14.6373L8.39989 7.86697H23.3777L22.653 14.6598C22.6187 14.9816 22.8517 15.2702 23.1734 15.3046C23.1946 15.3069 23.2156 15.308 23.2363 15.308C23.532 15.308 23.7861 15.0848 23.8182 14.7841L24.5562 7.86697H25.2633C25.5869 7.86697 25.8492 7.60465 25.8492 7.28104V4.76309C25.8493 4.43947 25.587 4.17715 25.2634 4.17715ZM9.79454 2.44623H13.2512C13.4144 2.44623 13.5701 2.3782 13.681 2.2585L14.6878 1.17188H17.09L18.0967 2.2585C18.2077 2.37814 18.3634 2.44623 18.5265 2.44623H21.9832L22.6873 4.17715H9.09048L9.79454 2.44623ZM24.6775 6.6951H7.10028V5.34902H24.6775V6.6951Z" fill="#D8D8D8"/>
</g>
<g id="Group_3">
<path id="Vector_3" d="M6.91898 12.8271L8.08733 23.7779H23.6904L24.8587 12.8271H6.91898ZM15.8889 20.5038C14.698 20.5038 13.7326 19.5384 13.7326 18.3476C13.7326 17.1567 14.698 16.1913 15.8889 16.1913C17.0797 16.1913 18.0451 17.1567 18.0451 18.3476C18.0451 19.5384 17.0797 20.5038 15.8889 20.5038Z" fill="#D8D8D8"/>
<g id="Group_4">
<path id="Vector_4" d="M15.8889 21.0897C14.3768 21.0897 13.1467 19.8596 13.1467 18.3475C13.1467 16.8355 14.3768 15.6053 15.8889 15.6053C17.4009 15.6053 18.6311 16.8355 18.6311 18.3475C18.6311 19.8596 17.4009 21.0897 15.8889 21.0897ZM15.8889 16.7773C15.023 16.7773 14.3185 17.4817 14.3185 18.3476C14.3185 19.2135 15.023 19.9179 15.8889 19.9179C16.7548 19.9179 17.4592 19.2135 17.4592 18.3476C17.4592 17.4817 16.7547 16.7773 15.8889 16.7773Z" fill="#D8D8D8"/>
</g>
</g>
</g>
</g>
<defs>
<clipPath id="clip0_2_1469">
<rect width="30" height="30" fill="white" transform="translate(0.888885)"/>
</clipPath>
</defs>
</svg>
