<svg width="31" height="30" viewBox="0 0 31 30" fill="none" xmlns="http://www.w3.org/2000/svg">
<g id="coffee-cup 1" clip-path="url(#clip0_2_1505)">
<g id="Group">
<g id="Group_2">
<path id="Vector" d="M22.3252 21.1735C22.0029 21.1389 21.7147 21.3722 21.6804 21.6939L20.9192 28.8281H10.4141L9.66318 21.7898C9.62884 21.468 9.34027 21.2347 9.01842 21.2694C8.69662 21.3037 8.46365 21.5924 8.49799 21.9141L9.30476 29.4762C9.33652 29.7741 9.58783 30 9.88736 30H21.446C21.7456 30 21.9969 29.7741 22.0286 29.4762L22.8457 21.8183C22.8799 21.4965 22.6469 21.2078 22.3252 21.1735Z" fill="#324A59"/>
<path id="Vector_2" d="M25.0412 4.17715H23.7301L22.698 1.63951C22.6081 1.41873 22.3936 1.27436 22.1552 1.27436H18.5602L17.5535 0.187734C17.4426 0.0680273 17.2868 0 17.1236 0H14.2097C14.0465 0 13.8907 0.0680273 13.7799 0.187734L12.7731 1.27436H9.17815C8.93979 1.27436 8.72522 1.41873 8.6354 1.63951L7.60315 4.17715H6.29211C5.9685 4.17715 5.70618 4.43947 5.70618 4.76309V7.28104C5.70618 7.60465 5.9685 7.86697 6.29211 7.86697H6.99922L7.73481 14.7616C7.76915 15.0834 8.05772 15.3166 8.37958 15.2821C8.70137 15.2477 8.93434 14.959 8.9 14.6373L8.17766 7.86697H23.1555L22.4308 14.6598C22.3964 14.9816 22.6295 15.2702 22.9512 15.3046C22.9723 15.3069 22.9933 15.308 23.0141 15.308C23.3097 15.308 23.5639 15.0848 23.596 14.7841L24.334 7.86697H25.0411C25.3647 7.86697 25.627 7.60465 25.627 7.28104V4.76309C25.6271 4.43947 25.3648 4.17715 25.0412 4.17715ZM9.57231 2.44623H13.029C13.1922 2.44623 13.3479 2.3782 13.4588 2.2585L14.4655 1.17188H16.8678L17.8745 2.2585C17.9854 2.37814 18.1412 2.44623 18.3043 2.44623H21.761L22.465 4.17715H8.86825L9.57231 2.44623ZM24.4552 6.6951H6.87805V5.34902H24.4552V6.6951Z" fill="#324A59"/>
</g>
<g id="Group_3">
<path id="Vector_3" d="M6.69675 12.8271L7.86511 23.7779H23.4682L24.6365 12.8271H6.69675ZM15.6666 20.5038C14.4758 20.5038 13.5104 19.5384 13.5104 18.3476C13.5104 17.1567 14.4758 16.1913 15.6666 16.1913C16.8575 16.1913 17.8229 17.1567 17.8229 18.3476C17.8229 19.5384 16.8575 20.5038 15.6666 20.5038Z" fill="#E4D5C9"/>
<g id="Group_4">
<path id="Vector_4" d="M15.6666 21.0897C14.1546 21.0897 12.9244 19.8596 12.9244 18.3475C12.9244 16.8355 14.1546 15.6053 15.6666 15.6053C17.1787 15.6053 18.4088 16.8355 18.4088 18.3475C18.4088 19.8596 17.1787 21.0897 15.6666 21.0897ZM15.6666 16.7773C14.8008 16.7773 14.0963 17.4817 14.0963 18.3476C14.0963 19.2135 14.8007 19.9179 15.6666 19.9179C16.5325 19.9179 17.2369 19.2135 17.2369 18.3476C17.2369 17.4817 16.5325 16.7773 15.6666 16.7773Z" fill="#324A59"/>
</g>
</g>
</g>
</g>
<defs>
<clipPath id="clip0_2_1505">
<rect width="30" height="30" fill="white" transform="translate(0.666656)"/>
</clipPath>
</defs>
</svg>
