<svg width="20" height="19" viewBox="0 0 20 19" fill="none" xmlns="http://www.w3.org/2000/svg">
<g id="Edit">
<path id="Fill 1" fill-rule="evenodd" clip-rule="evenodd" d="M18.7508 18.9397H11.4978C11.0838 18.9397 10.7478 18.6037 10.7478 18.1897C10.7478 17.7757 11.0838 17.4397 11.4978 17.4397H18.7508C19.1648 17.4397 19.5008 17.7757 19.5008 18.1897C19.5008 18.6037 19.1648 18.9397 18.7508 18.9397Z" fill="#324A59"/>
<g id="Group 5">
<mask id="mask0_112_173" style="mask-type:luminance" maskUnits="userSpaceOnUse" x="0" y="0" width="18" height="19">
<path id="Clip 4" fill-rule="evenodd" clip-rule="evenodd" d="M0.000305176 0.000183105H17.1809V18.9397H0.000305176V0.000183105Z" fill="white"/>
</mask>
<g mask="url(#mask0_112_173)">
<path id="Fill 3" fill-rule="evenodd" clip-rule="evenodd" d="M11.1106 2.01683L1.69558 13.7918C1.52458 14.0058 1.46158 14.2818 1.52458 14.5468L2.20558 17.4318L5.24458 17.3938C5.53358 17.3908 5.80058 17.2618 5.97758 17.0418C9.19458 13.0168 15.3276 5.34283 15.5016 5.11783C15.6656 4.85183 15.7296 4.47583 15.6436 4.11383C15.5556 3.74283 15.3246 3.42783 14.9916 3.22683C14.9206 3.17783 13.2356 1.86983 13.1836 1.82883C12.5496 1.32083 11.6246 1.40883 11.1106 2.01683ZM1.61358 18.9398C1.26658 18.9398 0.96458 18.7018 0.883579 18.3628L0.0645795 14.8918C-0.104421 14.1728 0.0635795 13.4308 0.524579 12.8548L9.94458 1.07283C9.94858 1.06883 9.95158 1.06383 9.95558 1.05983C10.9886 -0.175174 12.8566 -0.357174 14.1166 0.653826C14.1666 0.692826 15.8396 1.99283 15.8396 1.99283C16.4476 2.35483 16.9226 3.00183 17.1026 3.76783C17.2816 4.52583 17.1516 5.30783 16.7346 5.96883C16.7036 6.01783 16.6766 6.05983 7.14858 17.9798C6.68958 18.5518 6.00158 18.8848 5.26258 18.8938L1.62358 18.9398H1.61358Z" fill="#324A59"/>
</g>
</g>
<path id="Fill 6" fill-rule="evenodd" clip-rule="evenodd" d="M14.2234 8.68481C14.0634 8.68481 13.9034 8.63381 13.7664 8.52981L8.31436 4.34181C7.98636 4.08981 7.92436 3.61981 8.17636 3.28981C8.42936 2.96181 8.89936 2.90081 9.22836 3.15281L14.6814 7.33981C15.0094 7.59181 15.0714 8.06281 14.8184 8.39181C14.6714 8.58381 14.4484 8.68481 14.2234 8.68481Z" fill="#324A59"/>
</g>
</svg>
