<svg width="15" height="17" viewBox="0 0 15 17" fill="none" xmlns="http://www.w3.org/2000/svg">
<g id="Location">
<path id="Fill 1" fill-rule="evenodd" clip-rule="evenodd" d="M7.20882 6.08337C6.40466 6.08337 5.75049 6.73754 5.75049 7.54254C5.75049 8.34671 6.40466 9.00004 7.20882 9.00004C8.01299 9.00004 8.66715 8.34671 8.66715 7.54254C8.66715 6.73754 8.01299 6.08337 7.20882 6.08337ZM7.20882 10.25C5.71549 10.25 4.50049 9.03587 4.50049 7.54254C4.50049 6.04837 5.71549 4.83337 7.20882 4.83337C8.70216 4.83337 9.91715 6.04837 9.91715 7.54254C9.91715 9.03587 8.70216 10.25 7.20882 10.25Z" fill="#324A59"/>
<g id="Group 5">
<mask id="mask0_2_1598" style="mask-type:luminance" maskUnits="userSpaceOnUse" x="0" y="0" width="15" height="17">
<path id="Clip 4" fill-rule="evenodd" clip-rule="evenodd" d="M0.333374 0.666687H14.083V16.9167H0.333374V0.666687Z" fill="white"/>
</mask>
<g mask="url(#mask0_2_1598)">
<path id="Fill 3" fill-rule="evenodd" clip-rule="evenodd" d="M7.20801 1.91669C4.10634 1.91669 1.58301 4.46419 1.58301 7.59419C1.58301 11.5767 6.26967 15.4567 7.20801 15.6634C8.14634 15.4559 12.833 11.5759 12.833 7.59419C12.833 4.46419 10.3097 1.91669 7.20801 1.91669ZM7.20801 16.9167C5.71301 16.9167 0.333008 12.29 0.333008 7.59419C0.333008 3.77419 3.41717 0.666687 7.20801 0.666687C10.9988 0.666687 14.083 3.77419 14.083 7.59419C14.083 12.29 8.70301 16.9167 7.20801 16.9167Z" fill="#324A59"/>
</g>
</g>
</g>
</svg>
