<svg width="18" height="22" viewBox="0 0 18 22" fill="none" xmlns="http://www.w3.org/2000/svg">
<g id="Profile">
<g id="Group 3">
<mask id="mask0_2_2709" style="mask-type:luminance" maskUnits="userSpaceOnUse" x="0" y="13" width="18" height="9">
<path id="Clip 2" fill-rule="evenodd" clip-rule="evenodd" d="M0.333374 13.7041H17.4933V21.6926H0.333374V13.7041Z" fill="white"/>
</mask>
<g mask="url(#mask0_2_2709)">
<path id="Fill 1" fill-rule="evenodd" clip-rule="evenodd" d="M8.91434 15.3291C4.29825 15.3291 1.95825 16.1221 1.95825 17.6875C1.95825 19.267 4.29825 20.0676 8.91434 20.0676C13.5293 20.0676 15.8683 19.2746 15.8683 17.7092C15.8683 16.1297 13.5293 15.3291 8.91434 15.3291ZM8.91433 21.6926C6.79208 21.6926 0.333252 21.6926 0.333252 17.6875C0.333252 14.1169 5.231 13.7041 8.91433 13.7041C11.0366 13.7041 17.4933 13.7041 17.4933 17.7092C17.4933 21.2799 12.5966 21.6926 8.91433 21.6926Z" fill="#001833"/>
</g>
</g>
<g id="Group 6">
<mask id="mask1_2_2709" style="mask-type:luminance" maskUnits="userSpaceOnUse" x="3" y="0" width="12" height="12">
<path id="Clip 5" fill-rule="evenodd" clip-rule="evenodd" d="M3.16077 0.166748H14.6658V11.6702H3.16077V0.166748Z" fill="white"/>
</mask>
<g mask="url(#mask1_2_2709)">
<path id="Fill 4" fill-rule="evenodd" clip-rule="evenodd" d="M8.91438 1.71326C6.59497 1.71326 4.7078 3.59934 4.7078 5.91876C4.70022 8.23059 6.5733 10.1156 8.88297 10.1243L8.91438 10.8978V10.1243C11.2327 10.1243 13.1188 8.23709 13.1188 5.91876C13.1188 3.59934 11.2327 1.71326 8.91438 1.71326ZM8.91438 11.6702H8.87972C5.71422 11.6604 3.14997 9.07885 3.1608 5.91551C3.1608 2.74676 5.7413 0.16626 8.91438 0.16626C12.0864 0.16626 14.6658 2.74676 14.6658 5.91876C14.6658 9.09076 12.0864 11.6702 8.91438 11.6702Z" fill="#001833"/>
</g>
</g>
</g>
</svg>
