<svg width="247" height="253" viewBox="0 0 247 253" fill="none" xmlns="http://www.w3.org/2000/svg">
<g id="QR Code" clip-path="url(#clip0_2_1619)">
<path id="Vector" d="M247 0H0V253H247V0Z" fill="white"/>
<g id="Vector_2">
<path d="M19.5756 10.7947H10.5387V20.0511H19.5756V10.7947Z" fill="black"/>
<path d="M28.6125 10.7947H19.5756V20.0511H28.6125V10.7947Z" fill="black"/>
<path d="M37.6494 10.7947H28.6125V20.0511H37.6494V10.7947Z" fill="black"/>
<path d="M46.6863 10.7947H37.6494V20.0511H46.6863V10.7947Z" fill="black"/>
<path d="M55.7232 10.7947H46.6863V20.0511H55.7232V10.7947Z" fill="black"/>
<path d="M64.7601 10.7947H55.7232V20.0511H64.7601V10.7947Z" fill="black"/>
<path d="M73.797 10.7947H64.7601V20.0511H73.797V10.7947Z" fill="black"/>
<path d="M91.8708 10.7947H82.8339V20.0511H91.8708V10.7947Z" fill="black"/>
<path d="M100.908 10.7947H91.8708V20.0511H100.908V10.7947Z" fill="black"/>
<path d="M118.982 10.7947H109.945V20.0511H118.982V10.7947Z" fill="black"/>
<path d="M146.092 10.7947H137.055V20.0511H146.092V10.7947Z" fill="black"/>
<path d="M164.166 10.7947H155.129V20.0511H164.166V10.7947Z" fill="black"/>
<path d="M182.24 10.7947H173.203V20.0511H182.24V10.7947Z" fill="black"/>
<path d="M191.277 10.7947H182.24V20.0511H191.277V10.7947Z" fill="black"/>
<path d="M200.314 10.7947H191.277V20.0511H200.314V10.7947Z" fill="black"/>
<path d="M209.351 10.7947H200.314V20.0511H209.351V10.7947Z" fill="black"/>
<path d="M218.388 10.7947H209.351V20.0511H218.388V10.7947Z" fill="black"/>
<path d="M227.424 10.7947H218.388V20.0511H227.424V10.7947Z" fill="black"/>
<path d="M236.461 10.7947H227.424V20.0511H236.461V10.7947Z" fill="black"/>
<path d="M19.5756 20.0511H10.5387V29.3075H19.5756V20.0511Z" fill="black"/>
<path d="M73.797 20.0511H64.7601L64.7601 29.3075H73.797V20.0511Z" fill="black"/>
<path d="M100.908 20.0511H91.8708V29.3075H100.908V20.0511Z" fill="black"/>
<path d="M128.018 20.0511H118.982V29.3075H128.018V20.0511Z" fill="black"/>
<path d="M155.129 20.0511H146.092L146.092 29.3075H155.129V20.0511Z" fill="black"/>
<path d="M182.24 20.0511H173.203V29.3075H182.24V20.0511Z" fill="black"/>
<path d="M236.461 20.0511H227.424V29.3075H236.461V20.0511Z" fill="black"/>
<path d="M19.5756 29.3075H10.5387V38.564H19.5756V29.3075Z" fill="black"/>
<path d="M37.6494 29.3075H28.6125V38.564H37.6494V29.3075Z" fill="black"/>
<path d="M46.6863 29.3075H37.6494V38.564H46.6863V29.3075Z" fill="black"/>
<path d="M55.7232 29.3075H46.6863V38.564H55.7232V29.3075Z" fill="black"/>
<path d="M73.797 29.3075H64.7601V38.564H73.797V29.3075Z" fill="black"/>
<path d="M91.8708 29.3075H82.8339V38.564H91.8708V29.3075Z" fill="black"/>
<path d="M100.908 29.3075H91.8708V38.564H100.908V29.3075Z" fill="black"/>
<path d="M128.018 29.3075H118.982V38.564H128.018V29.3075Z" fill="black"/>
<path d="M137.055 29.3075H128.018V38.564H137.055V29.3075Z" fill="black"/>
<path d="M146.092 29.3075H137.055V38.564H146.092L146.092 29.3075Z" fill="black"/>
<path d="M155.129 29.3075H146.092L146.092 38.564H155.129V29.3075Z" fill="black"/>
<path d="M164.166 29.3075H155.129V38.564H164.166V29.3075Z" fill="black"/>
<path d="M182.24 29.3075H173.203V38.564H182.24V29.3075Z" fill="black"/>
<path d="M200.314 29.3075H191.277V38.564H200.314V29.3075Z" fill="black"/>
<path d="M209.351 29.3075H200.314V38.564H209.351V29.3075Z" fill="black"/>
<path d="M218.388 29.3075H209.351V38.564H218.388V29.3075Z" fill="black"/>
<path d="M236.461 29.3075H227.424V38.564H236.461V29.3075Z" fill="black"/>
<path d="M19.5756 38.564H10.5387V47.8204H19.5756V38.564Z" fill="black"/>
<path d="M37.6494 38.564H28.6125V47.8204H37.6494V38.564Z" fill="black"/>
<path d="M46.6863 38.564H37.6494V47.8204H46.6863V38.564Z" fill="black"/>
<path d="M55.7232 38.564H46.6863V47.8204H55.7232V38.564Z" fill="black"/>
<path d="M73.797 38.564H64.7601V47.8204H73.797V38.564Z" fill="black"/>
<path d="M100.908 38.564H91.8708V47.8204H100.908V38.564Z" fill="black"/>
<path d="M109.945 38.564H100.908V47.8204H109.945V38.564Z" fill="black"/>
<path d="M128.018 38.564H118.982V47.8204H128.018V38.564Z" fill="black"/>
<path d="M155.129 38.564H146.092L146.092 47.8204H155.129V38.564Z" fill="black"/>
<path d="M182.24 38.564H173.203V47.8204H182.24V38.564Z" fill="black"/>
<path d="M200.314 38.564H191.277V47.8204H200.314V38.564Z" fill="black"/>
<path d="M209.351 38.564H200.314V47.8204H209.351V38.564Z" fill="black"/>
<path d="M218.388 38.564H209.351V47.8204H218.388V38.564Z" fill="black"/>
<path d="M236.461 38.564H227.424V47.8204H236.461V38.564Z" fill="black"/>
<path d="M19.5756 47.8204H10.5387V57.0768H19.5756V47.8204Z" fill="black"/>
<path d="M37.6494 47.8204H28.6125V57.0768H37.6494V47.8204Z" fill="black"/>
<path d="M46.6863 47.8204H37.6494V57.0768H46.6863V47.8204Z" fill="black"/>
<path d="M55.7232 47.8204H46.6863V57.0768H55.7232V47.8204Z" fill="black"/>
<path d="M73.797 47.8204H64.7601V57.0768H73.797V47.8204Z" fill="black"/>
<path d="M91.8708 47.8204H82.8339V57.0768H91.8708V47.8204Z" fill="black"/>
<path d="M100.908 47.8204H91.8708V57.0768H100.908V47.8204Z" fill="black"/>
<path d="M128.018 47.8204H118.982V57.0768H128.018V47.8204Z" fill="black"/>
<path d="M182.24 47.8204H173.203V57.0768H182.24V47.8204Z" fill="black"/>
<path d="M200.314 47.8204H191.277V57.0768H200.314V47.8204Z" fill="black"/>
<path d="M209.351 47.8204H200.314V57.0768H209.351V47.8204Z" fill="black"/>
<path d="M218.388 47.8204H209.351V57.0768H218.388V47.8204Z" fill="black"/>
<path d="M236.461 47.8204H227.424V57.0768H236.461V47.8204Z" fill="black"/>
<path d="M19.5756 57.0768H10.5387V66.3332H19.5756V57.0768Z" fill="black"/>
<path d="M73.797 57.0768H64.7601V66.3332H73.797V57.0768Z" fill="black"/>
<path d="M100.908 57.0768H91.8708V66.3332H100.908V57.0768Z" fill="black"/>
<path d="M128.018 57.0768H118.982V66.3332H128.018V57.0768Z" fill="black"/>
<path d="M182.24 57.0768H173.203V66.3332H182.24V57.0768Z" fill="black"/>
<path d="M236.461 57.0768H227.424V66.3332H236.461V57.0768Z" fill="black"/>
<path d="M19.5756 66.3332H10.5387V75.5897H19.5756V66.3332Z" fill="black"/>
<path d="M28.6125 66.3332L19.5756 66.3332V75.5897H28.6125V66.3332Z" fill="black"/>
<path d="M37.6494 66.3332H28.6125V75.5897H37.6494V66.3332Z" fill="black"/>
<path d="M46.6863 66.3332H37.6494V75.5897H46.6863V66.3332Z" fill="black"/>
<path d="M55.7232 66.3332H46.6863V75.5897H55.7232V66.3332Z" fill="black"/>
<path d="M64.7601 66.3332L55.7232 66.3332V75.5897H64.7601L64.7601 66.3332Z" fill="black"/>
<path d="M73.797 66.3332H64.7601L64.7601 75.5897H73.797V66.3332Z" fill="black"/>
<path d="M91.8708 66.3332L82.8339 66.3332V75.5897H91.8708V66.3332Z" fill="black"/>
<path d="M109.945 66.3332L100.908 66.3332V75.5897H109.945V66.3332Z" fill="black"/>
<path d="M128.018 66.3332H118.982V75.5897H128.018V66.3332Z" fill="black"/>
<path d="M146.092 66.3332H137.055V75.5897H146.092V66.3332Z" fill="black"/>
<path d="M164.166 66.3332H155.129V75.5897H164.166V66.3332Z" fill="black"/>
<path d="M182.24 66.3332H173.203V75.5897H182.24V66.3332Z" fill="black"/>
<path d="M191.277 66.3332L182.24 66.3332V75.5897H191.277V66.3332Z" fill="black"/>
<path d="M200.314 66.3332H191.277V75.5897H200.314V66.3332Z" fill="black"/>
<path d="M209.351 66.3332H200.314V75.5897H209.351V66.3332Z" fill="black"/>
<path d="M218.388 66.3332H209.351V75.5897H218.388V66.3332Z" fill="black"/>
<path d="M227.424 66.3332L218.388 66.3332V75.5897H227.424V66.3332Z" fill="black"/>
<path d="M236.461 66.3332H227.424V75.5897H236.461V66.3332Z" fill="black"/>
<path d="M118.982 75.5897H109.945V84.8461H118.982V75.5897Z" fill="black"/>
<path d="M128.018 75.5897H118.982V84.8461H128.018V75.5897Z" fill="black"/>
<path d="M137.055 75.5897H128.018V84.8461H137.055V75.5897Z" fill="black"/>
<path d="M155.129 75.5897H146.092L146.092 84.8461H155.129V75.5897Z" fill="black"/>
<path d="M28.6125 84.8461H19.5756V94.1025H28.6125V84.8461Z" fill="black"/>
<path d="M55.7232 84.8461H46.6863V94.1025H55.7232V84.8461Z" fill="black"/>
<path d="M73.797 84.8461H64.7601V94.1025H73.797V84.8461Z" fill="black"/>
<path d="M109.945 84.8461H100.908V94.1025H109.945V84.8461Z" fill="black"/>
<path d="M164.166 84.8461H155.129V94.1025H164.166V84.8461Z" fill="black"/>
<path d="M173.203 84.8461H164.166V94.1025H173.203V84.8461Z" fill="black"/>
<path d="M200.314 84.8461H191.277V94.1025H200.314V84.8461Z" fill="black"/>
<path d="M218.388 84.8461H209.351V94.1025H218.388V84.8461Z" fill="black"/>
<path d="M236.461 84.8461H227.424V94.1025H236.461V84.8461Z" fill="black"/>
<path d="M19.5756 94.1025H10.5387V103.359H19.5756V94.1025Z" fill="black"/>
<path d="M28.6125 94.1025H19.5756V103.359H28.6125V94.1025Z" fill="black"/>
<path d="M55.7232 94.1025H46.6863V103.359H55.7232V94.1025Z" fill="black"/>
<path d="M146.092 94.1025H137.055V103.359H146.092V94.1025Z" fill="black"/>
<path d="M155.129 94.1025H146.092V103.359H155.129V94.1025Z" fill="black"/>
<path d="M173.203 94.1025H164.166V103.359H173.203V94.1025Z" fill="black"/>
<path d="M191.277 94.1025H182.24V103.359H191.277V94.1025Z" fill="black"/>
<path d="M209.351 94.1025H200.314V103.359H209.351V94.1025Z" fill="black"/>
<path d="M218.388 94.1025H209.351V103.359H218.388V94.1025Z" fill="black"/>
<path d="M227.424 94.1025H218.388V103.359H227.424V94.1025Z" fill="black"/>
<path d="M19.5756 103.359H10.5387V112.615H19.5756V103.359Z" fill="black"/>
<path d="M28.6125 103.359H19.5756V112.615H28.6125V103.359Z" fill="black"/>
<path d="M37.6494 103.359H28.6125V112.615H37.6494V103.359Z" fill="black"/>
<path d="M73.797 103.359H64.7601V112.615H73.797V103.359Z" fill="black"/>
<path d="M91.8708 103.359H82.8339V112.615H91.8708V103.359Z" fill="black"/>
<path d="M100.908 103.359H91.8708V112.615H100.908V103.359Z" fill="black"/>
<path d="M118.982 103.359H109.945V112.615H118.982V103.359Z" fill="black"/>
<path d="M137.055 103.359H128.018V112.615H137.055V103.359Z" fill="black"/>
<path d="M155.129 103.359H146.092L146.092 112.615H155.129V103.359Z" fill="black"/>
<path d="M173.203 103.359H164.166V112.615H173.203V103.359Z" fill="black"/>
<path d="M182.24 103.359H173.203V112.615H182.24V103.359Z" fill="black"/>
<path d="M218.388 103.359H209.351V112.615H218.388V103.359Z" fill="black"/>
<path d="M19.5756 112.615H10.5387V121.872H19.5756V112.615Z" fill="black"/>
<path d="M37.6494 112.615H28.6125V121.872H37.6494V112.615Z" fill="black"/>
<path d="M46.6863 112.615H37.6494V121.872H46.6863V112.615Z" fill="black"/>
<path d="M55.7232 112.615H46.6863V121.872H55.7232V112.615Z" fill="black"/>
<path d="M100.908 112.615H91.8708V121.872H100.908V112.615Z" fill="black"/>
<path d="M109.945 112.615H100.908V121.872H109.945V112.615Z" fill="black"/>
<path d="M118.982 112.615H109.945V121.872H118.982V112.615Z" fill="black"/>
<path d="M137.055 112.615H128.018V121.872H137.055V112.615Z" fill="black"/>
<path d="M155.129 112.615H146.092V121.872H155.129V112.615Z" fill="black"/>
<path d="M173.203 112.615H164.166V121.872H173.203V112.615Z" fill="black"/>
<path d="M182.24 112.615H173.203V121.872H182.24V112.615Z" fill="black"/>
<path d="M200.314 112.615H191.277V121.872H200.314V112.615Z" fill="black"/>
<path d="M209.351 112.615H200.314V121.872H209.351V112.615Z" fill="black"/>
<path d="M227.424 112.615H218.388V121.872H227.424V112.615Z" fill="black"/>
<path d="M28.6125 121.872H19.5756V131.128H28.6125V121.872Z" fill="black"/>
<path d="M37.6494 121.872H28.6125V131.128H37.6494V121.872Z" fill="black"/>
<path d="M64.7601 121.872H55.7232V131.128H64.7601V121.872Z" fill="black"/>
<path d="M73.797 121.872H64.7601V131.128H73.797V121.872Z" fill="black"/>
<path d="M100.908 121.872H91.8708V131.128H100.908V121.872Z" fill="black"/>
<path d="M164.166 121.872H155.129V131.128H164.166V121.872Z" fill="black"/>
<path d="M173.203 121.872H164.166V131.128H173.203V121.872Z" fill="black"/>
<path d="M182.24 121.872H173.203V131.128H182.24V121.872Z" fill="black"/>
<path d="M191.277 121.872H182.24V131.128H191.277V121.872Z" fill="black"/>
<path d="M236.461 121.872H227.424V131.128H236.461V121.872Z" fill="black"/>
<path d="M28.6125 131.128H19.5756V140.385H28.6125V131.128Z" fill="black"/>
<path d="M46.6863 131.128H37.6494V140.385H46.6863V131.128Z" fill="black"/>
<path d="M55.7232 131.128H46.6863V140.385H55.7232V131.128Z" fill="black"/>
<path d="M100.908 131.128H91.8708V140.385H100.908V131.128Z" fill="black"/>
<path d="M118.982 131.128H109.945V140.385H118.982V131.128Z" fill="black"/>
<path d="M146.092 131.128H137.055V140.385H146.092V131.128Z" fill="black"/>
<path d="M173.203 131.128H164.166V140.385H173.203V131.128Z" fill="black"/>
<path d="M191.277 131.128H182.24V140.385H191.277V131.128Z" fill="black"/>
<path d="M218.388 131.128H209.351V140.385H218.388V131.128Z" fill="black"/>
<path d="M19.5756 140.385H10.5387V149.641H19.5756V140.385Z" fill="black"/>
<path d="M64.7601 140.385H55.7232V149.641H64.7601V140.385Z" fill="black"/>
<path d="M73.797 140.385H64.7601V149.641H73.797V140.385Z" fill="black"/>
<path d="M109.945 140.385H100.908V149.641H109.945V140.385Z" fill="black"/>
<path d="M118.982 140.385H109.945V149.641H118.982V140.385Z" fill="black"/>
<path d="M128.018 140.385H118.982V149.641H128.018V140.385Z" fill="black"/>
<path d="M137.055 140.385H128.018V149.641H137.055V140.385Z" fill="black"/>
<path d="M182.24 140.385H173.203V149.641H182.24V140.385Z" fill="black"/>
<path d="M191.277 140.385H182.24V149.641H191.277V140.385Z" fill="black"/>
<path d="M200.314 140.385H191.277V149.641H200.314V140.385Z" fill="black"/>
<path d="M209.351 140.385H200.314V149.641H209.351V140.385Z" fill="black"/>
<path d="M37.6494 149.641H28.6125V158.898H37.6494V149.641Z" fill="black"/>
<path d="M64.7601 149.641H55.7232V158.898H64.7601V149.641Z" fill="black"/>
<path d="M82.8339 149.641L73.797 149.641V158.898H82.8339V149.641Z" fill="black"/>
<path d="M100.908 149.641L91.8708 149.641V158.898H100.908V149.641Z" fill="black"/>
<path d="M109.945 149.641H100.908V158.898H109.945V149.641Z" fill="black"/>
<path d="M128.018 149.641H118.982V158.898H128.018V149.641Z" fill="black"/>
<path d="M137.055 149.641H128.018V158.898H137.055V149.641Z" fill="black"/>
<path d="M155.129 149.641H146.092V158.898H155.129V149.641Z" fill="black"/>
<path d="M173.203 149.641L164.166 149.641V158.898H173.203V149.641Z" fill="black"/>
<path d="M200.314 149.641H191.277V158.898H200.314V149.641Z" fill="black"/>
<path d="M209.351 149.641H200.314V158.898H209.351V149.641Z" fill="black"/>
<path d="M218.388 149.641L209.351 149.641V158.898H218.388V149.641Z" fill="black"/>
<path d="M227.424 149.641H218.388V158.898H227.424V149.641Z" fill="black"/>
<path d="M46.6863 158.898H37.6494V168.154H46.6863V158.898Z" fill="black"/>
<path d="M55.7232 158.898H46.6863V168.154H55.7232V158.898Z" fill="black"/>
<path d="M64.7601 158.898H55.7232V168.154H64.7601V158.898Z" fill="black"/>
<path d="M73.797 158.898H64.7601V168.154H73.797V158.898Z" fill="black"/>
<path d="M91.8708 158.898H82.8339V168.154H91.8708V158.898Z" fill="black"/>
<path d="M100.908 158.898H91.8708V168.154H100.908V158.898Z" fill="black"/>
<path d="M109.945 158.898H100.908V168.154H109.945V158.898Z" fill="black"/>
<path d="M118.982 158.898H109.945V168.154H118.982V158.898Z" fill="black"/>
<path d="M164.166 158.898H155.129V168.154H164.166V158.898Z" fill="black"/>
<path d="M173.203 158.898H164.166V168.154H173.203V158.898Z" fill="black"/>
<path d="M182.24 158.898H173.203V168.154H182.24V158.898Z" fill="black"/>
<path d="M191.277 158.898H182.24V168.154H191.277V158.898Z" fill="black"/>
<path d="M200.314 158.898H191.277V168.154H200.314V158.898Z" fill="black"/>
<path d="M209.351 158.898H200.314V168.154H209.351V158.898Z" fill="black"/>
<path d="M236.461 158.898H227.424V168.154H236.461V158.898Z" fill="black"/>
<path d="M100.908 168.154H91.8708V177.41H100.908V168.154Z" fill="black"/>
<path d="M109.945 168.154H100.908V177.41H109.945V168.154Z" fill="black"/>
<path d="M118.982 168.154H109.945V177.41H118.982V168.154Z" fill="black"/>
<path d="M128.018 168.154H118.982V177.41H128.018V168.154Z" fill="black"/>
<path d="M137.055 168.154H128.018V177.41H137.055V168.154Z" fill="black"/>
<path d="M146.092 168.154H137.055V177.41H146.092V168.154Z" fill="black"/>
<path d="M164.166 168.154H155.129V177.41H164.166V168.154Z" fill="black"/>
<path d="M200.314 168.154H191.277V177.41H200.314V168.154Z" fill="black"/>
<path d="M236.461 168.154H227.424V177.41H236.461V168.154Z" fill="black"/>
<path d="M19.5756 177.41H10.5387V186.667H19.5756V177.41Z" fill="black"/>
<path d="M28.6125 177.41H19.5756V186.667H28.6125V177.41Z" fill="black"/>
<path d="M37.6494 177.41H28.6125V186.667H37.6494V177.41Z" fill="black"/>
<path d="M46.6863 177.41H37.6494V186.667H46.6863V177.41Z" fill="black"/>
<path d="M55.7232 177.41H46.6863V186.667H55.7232V177.41Z" fill="black"/>
<path d="M64.7601 177.41H55.7232V186.667H64.7601V177.41Z" fill="black"/>
<path d="M73.797 177.41H64.7601V186.667H73.797V177.41Z" fill="black"/>
<path d="M100.908 177.41H91.8708V186.667H100.908V177.41Z" fill="black"/>
<path d="M109.945 177.41H100.908V186.667H109.945V177.41Z" fill="black"/>
<path d="M118.982 177.41H109.945V186.667H118.982V177.41Z" fill="black"/>
<path d="M128.018 177.41H118.982V186.667H128.018V177.41Z" fill="black"/>
<path d="M137.055 177.41H128.018V186.667H137.055V177.41Z" fill="black"/>
<path d="M146.092 177.41H137.055V186.667H146.092V177.41Z" fill="black"/>
<path d="M164.166 177.41H155.129V186.667H164.166V177.41Z" fill="black"/>
<path d="M182.24 177.41H173.203V186.667H182.24V177.41Z" fill="black"/>
<path d="M200.314 177.41H191.277V186.667H200.314V177.41Z" fill="black"/>
<path d="M236.461 177.41H227.424V186.667H236.461V177.41Z" fill="black"/>
<path d="M19.5756 186.667H10.5387V195.923H19.5756V186.667Z" fill="black"/>
<path d="M73.797 186.667H64.7601L64.7601 195.923H73.797V186.667Z" fill="black"/>
<path d="M146.092 186.667H137.055V195.923H146.092V186.667Z" fill="black"/>
<path d="M164.166 186.667H155.129V195.923H164.166V186.667Z" fill="black"/>
<path d="M200.314 186.667H191.277V195.923H200.314V186.667Z" fill="black"/>
<path d="M209.351 186.667H200.314V195.923H209.351V186.667Z" fill="black"/>
<path d="M218.388 186.667H209.351V195.923H218.388V186.667Z" fill="black"/>
<path d="M19.5756 195.923H10.5387V205.18H19.5756V195.923Z" fill="black"/>
<path d="M37.6494 195.923H28.6125V205.18H37.6494V195.923Z" fill="black"/>
<path d="M46.6863 195.923H37.6494V205.18H46.6863V195.923Z" fill="black"/>
<path d="M55.7232 195.923H46.6863V205.18H55.7232V195.923Z" fill="black"/>
<path d="M73.797 195.923H64.7601V205.18H73.797V195.923Z" fill="black"/>
<path d="M91.8708 195.923H82.8339V205.18H91.8708V195.923Z" fill="black"/>
<path d="M155.129 195.923H146.092L146.092 205.18H155.129V195.923Z" fill="black"/>
<path d="M164.166 195.923H155.129V205.18H164.166V195.923Z" fill="black"/>
<path d="M173.203 195.923H164.166V205.18H173.203V195.923Z" fill="black"/>
<path d="M182.24 195.923H173.203V205.18H182.24V195.923Z" fill="black"/>
<path d="M191.277 195.923H182.24V205.18H191.277V195.923Z" fill="black"/>
<path d="M200.314 195.923H191.277V205.18H200.314V195.923Z" fill="black"/>
<path d="M209.351 195.923H200.314V205.18H209.351V195.923Z" fill="black"/>
<path d="M218.388 195.923H209.351V205.18H218.388V195.923Z" fill="black"/>
<path d="M227.424 195.923H218.388V205.18H227.424V195.923Z" fill="black"/>
<path d="M236.461 195.923H227.424V205.18H236.461V195.923Z" fill="black"/>
<path d="M19.5756 205.18H10.5387V214.436H19.5756V205.18Z" fill="black"/>
<path d="M37.6494 205.18H28.6125V214.436H37.6494V205.18Z" fill="black"/>
<path d="M46.6863 205.18H37.6494V214.436H46.6863V205.18Z" fill="black"/>
<path d="M55.7232 205.18H46.6863V214.436H55.7232V205.18Z" fill="black"/>
<path d="M73.797 205.18H64.7601V214.436H73.797V205.18Z" fill="black"/>
<path d="M109.945 205.18H100.908V214.436H109.945V205.18Z" fill="black"/>
<path d="M137.055 205.18H128.018V214.436H137.055V205.18Z" fill="black"/>
<path d="M146.092 205.18H137.055V214.436H146.092L146.092 205.18Z" fill="black"/>
<path d="M173.203 205.18H164.166V214.436H173.203V205.18Z" fill="black"/>
<path d="M182.24 205.18H173.203V214.436H182.24V205.18Z" fill="black"/>
<path d="M191.277 205.18H182.24V214.436H191.277V205.18Z" fill="black"/>
<path d="M209.351 205.18H200.314V214.436H209.351V205.18Z" fill="black"/>
<path d="M19.5756 214.436H10.5387V223.692H19.5756V214.436Z" fill="black"/>
<path d="M37.6494 214.436H28.6125V223.692H37.6494V214.436Z" fill="black"/>
<path d="M46.6863 214.436H37.6494V223.692H46.6863V214.436Z" fill="black"/>
<path d="M55.7232 214.436H46.6863V223.692H55.7232V214.436Z" fill="black"/>
<path d="M73.797 214.436H64.7601V223.692H73.797V214.436Z" fill="black"/>
<path d="M137.055 214.436H128.018V223.692H137.055V214.436Z" fill="black"/>
<path d="M146.092 214.436H137.055V223.692H146.092V214.436Z" fill="black"/>
<path d="M218.388 214.436H209.351V223.692H218.388V214.436Z" fill="black"/>
<path d="M236.461 214.436H227.424V223.692H236.461V214.436Z" fill="black"/>
<path d="M19.5756 223.692H10.5387V232.949H19.5756V223.692Z" fill="black"/>
<path d="M73.797 223.692H64.7601V232.949H73.797V223.692Z" fill="black"/>
<path d="M91.8708 223.692H82.8339V232.949H91.8708V223.692Z" fill="black"/>
<path d="M100.908 223.692H91.8708V232.949H100.908V223.692Z" fill="black"/>
<path d="M109.945 223.692H100.908V232.949H109.945V223.692Z" fill="black"/>
<path d="M137.055 223.692H128.018V232.949H137.055V223.692Z" fill="black"/>
<path d="M146.092 223.692H137.055V232.949H146.092V223.692Z" fill="black"/>
<path d="M164.166 223.692H155.129V232.949H164.166V223.692Z" fill="black"/>
<path d="M173.203 223.692H164.166V232.949H173.203V223.692Z" fill="black"/>
<path d="M182.24 223.692H173.203V232.949H182.24V223.692Z" fill="black"/>
<path d="M191.277 223.692H182.24V232.949H191.277V223.692Z" fill="black"/>
<path d="M200.314 223.692H191.277V232.949H200.314V223.692Z" fill="black"/>
<path d="M209.351 223.692H200.314V232.949H209.351V223.692Z" fill="black"/>
<path d="M227.424 223.692H218.388V232.949H227.424V223.692Z" fill="black"/>
<path d="M236.461 223.692H227.424V232.949H236.461V223.692Z" fill="black"/>
<path d="M19.5756 232.949H10.5387V242.205H19.5756V232.949Z" fill="black"/>
<path d="M28.6125 232.949H19.5756V242.205H28.6125V232.949Z" fill="black"/>
<path d="M37.6494 232.949H28.6125V242.205H37.6494V232.949Z" fill="black"/>
<path d="M46.6863 232.949H37.6494V242.205H46.6863V232.949Z" fill="black"/>
<path d="M55.7232 232.949H46.6863V242.205H55.7232V232.949Z" fill="black"/>
<path d="M64.7601 232.949H55.7232V242.205H64.7601L64.7601 232.949Z" fill="black"/>
<path d="M73.797 232.949H64.7601L64.7601 242.205H73.797V232.949Z" fill="black"/>
<path d="M100.908 232.949H91.8708V242.205H100.908V232.949Z" fill="black"/>
<path d="M109.945 232.949H100.908V242.205H109.945V232.949Z" fill="black"/>
<path d="M128.018 232.949H118.982V242.205H128.018V232.949Z" fill="black"/>
<path d="M137.055 232.949H128.018V242.205H137.055V232.949Z" fill="black"/>
<path d="M146.092 232.949H137.055V242.205H146.092V232.949Z" fill="black"/>
<path d="M182.24 232.949H173.203V242.205H182.24V232.949Z" fill="black"/>
<path d="M218.388 232.949H209.351V242.205H218.388V232.949Z" fill="black"/>
<path d="M236.461 232.949H227.424V242.205H236.461V232.949Z" fill="black"/>
</g>
</g>
<defs>
<clipPath id="clip0_2_1619">
<rect width="247" height="253" fill="white"/>
</clipPath>
</defs>
</svg>
