<svg width="177" height="177" viewBox="0 0 177 177" fill="none" xmlns="http://www.w3.org/2000/svg">
<g id="take-away 1">
<g id="take away-delivery-Restaurant-Coffee break-coffee time">
<path id="Vector" d="M163.034 87.6703L146.44 35.1234C146.269 34.5608 145.921 34.0684 145.447 33.7196C144.974 33.3708 144.401 33.1841 143.812 33.1875H116.156V24.8906C116.16 24.2917 115.965 23.7084 115.603 23.2312L107.859 12.9155V5.53125H102.328V13.8281C102.325 14.427 102.519 15.0103 102.881 15.4875L110.625 25.8033V55.3125C110.625 56.046 110.334 56.7494 109.815 57.2681C109.296 57.7868 108.593 58.0781 107.859 58.0781C107.126 58.0781 106.422 57.7868 105.904 57.2681C105.385 56.7494 105.094 56.046 105.094 55.3125V38.7188H99.5625V58.0781C99.5625 58.8116 99.2711 59.5151 98.7525 60.0337C98.2338 60.5524 97.5304 60.8438 96.7969 60.8438C96.0634 60.8438 95.3599 60.5524 94.8413 60.0337C94.3226 59.5151 94.0312 58.8116 94.0312 58.0781V38.7188H88.5V58.0781C88.5 58.8116 88.2086 59.5151 87.69 60.0337C87.1713 60.5524 86.4679 60.8438 85.7344 60.8438C85.0009 60.8438 84.2974 60.5524 83.7788 60.0337C83.2601 59.5151 82.9688 58.8116 82.9688 58.0781V38.7188H77.4375V58.0781C77.4375 58.8116 77.1461 59.5151 76.6275 60.0337C76.1088 60.5524 75.4054 60.8438 74.6719 60.8438C73.9384 60.8438 73.2349 60.5524 72.7163 60.0337C72.1976 59.5151 71.9062 58.8116 71.9062 58.0781V38.7188H66.375V49.7812H63.6094C62.8759 49.7812 62.1724 49.4899 61.6538 48.9712C61.1351 48.4526 60.8438 47.7491 60.8438 47.0156V28.7902L71.1042 18.5573C71.6136 18.03 71.9008 17.327 71.9062 16.5938V5.53125H66.375V15.4598L56.1145 25.6927C55.6051 26.22 55.318 26.923 55.3125 27.6562V33.1875H33.1875C32.5995 33.1841 32.0261 33.3708 31.5527 33.7196C31.0792 34.0684 30.7311 34.5608 30.5602 35.1234L13.9664 87.6703C13.8802 87.9387 13.8336 88.2182 13.8281 88.5V163.172C13.8347 165.37 14.7109 167.477 16.2655 169.031C17.82 170.586 19.9266 171.462 22.125 171.469H154.875C157.073 171.462 159.18 170.586 160.735 169.031C162.289 167.477 163.165 165.37 163.172 163.172V88.5C163.166 88.2182 163.12 87.9387 163.034 87.6703ZM55.8103 49.7812C56.3844 51.3929 57.441 52.7885 58.8365 53.7783C60.232 54.768 61.8986 55.3037 63.6094 55.3125H66.375V58.0781C66.3816 60.2766 67.2578 62.3831 68.8124 63.9376C70.3669 65.4922 72.4734 66.3684 74.6719 66.375C76.7199 66.3697 78.6922 65.6004 80.2031 64.2178C81.7111 65.6051 83.6853 66.3751 85.7344 66.3751C87.7834 66.3751 89.7577 65.6051 91.2656 64.2178C92.1559 65.0327 93.2147 65.6416 94.3669 66.0012C95.519 66.3609 96.7361 66.4625 97.9319 66.2988C99.1277 66.1352 100.273 65.7103 101.286 65.0543C102.299 64.3983 103.155 63.5273 103.794 62.5031C105.028 63.2224 106.431 63.604 107.859 63.6094C110.058 63.6028 112.164 62.7266 113.719 61.172C115.273 59.6175 116.15 57.5109 116.156 55.3125V49.7812H124.453C125.187 49.7812 125.89 50.0726 126.409 50.5913C126.927 51.1099 127.219 51.8134 127.219 52.5469V69.1406C127.219 69.8741 126.927 70.5776 126.409 71.0962C125.89 71.6149 125.187 71.9062 124.453 71.9062H52.5469C51.8134 71.9062 51.1099 71.6149 50.5913 71.0962C50.0726 70.5776 49.7812 69.8741 49.7812 69.1406V52.5469C49.7812 51.8134 50.0726 51.1099 50.5913 50.5913C51.1099 50.0726 51.8134 49.7812 52.5469 49.7812H55.8103ZM157.641 163.172C157.641 163.905 157.349 164.609 156.831 165.127C156.312 165.646 155.608 165.938 154.875 165.938H22.125C21.3915 165.938 20.6881 165.646 20.1694 165.127C19.6508 164.609 19.3594 163.905 19.3594 163.172V88.9148L35.2064 38.7188H55.3125V44.25H52.5469C50.3484 44.2566 48.2419 45.1328 46.6874 46.6874C45.1328 48.2419 44.2566 50.3484 44.25 52.5469V69.1406C44.2566 71.3391 45.1328 73.4456 46.6874 75.0002C48.2419 76.5547 50.3484 77.4309 52.5469 77.4375H124.453C126.652 77.4309 128.758 76.5547 130.313 75.0002C131.867 73.4456 132.743 71.3391 132.75 69.1406V52.5469C132.743 50.3484 131.867 48.2419 130.313 46.6874C128.758 45.1328 126.652 44.2566 124.453 44.25H116.156V38.7188H141.794L157.641 88.9148V163.172Z" fill="#001833"/>
<path id="Vector_2" d="M118.922 99.5625C118.922 98.829 118.631 98.1256 118.112 97.6069C117.593 97.0883 116.89 96.7969 116.156 96.7969H115.658L113.335 85.1813C113.207 84.5243 112.843 83.9368 112.312 83.5294C111.78 83.122 111.119 82.9226 110.451 82.9688L66.2008 85.7344C65.6152 85.7714 65.0566 85.9936 64.6057 86.3689C64.1548 86.7443 63.8349 87.2533 63.6923 87.8224L61.4494 96.7969H60.8438C60.1103 96.7969 59.4068 97.0883 58.8882 97.6069C58.3695 98.1256 58.0781 98.829 58.0781 99.5625V110.625C58.0781 111.359 58.3695 112.062 58.8882 112.581C59.4068 113.099 60.1103 113.391 60.8438 113.391H61.1507L66.4054 157.964C66.4844 158.635 66.8063 159.254 67.3101 159.704C67.814 160.154 68.4651 160.403 69.1406 160.406H107.859C108.537 160.406 109.191 160.157 109.697 159.707C110.203 159.257 110.526 158.637 110.606 157.964L115.849 113.391H116.156C116.89 113.391 117.593 113.099 118.112 112.581C118.631 112.062 118.922 111.359 118.922 110.625V99.5625ZM63.6094 102.328H113.391V107.859H63.6094V102.328ZM68.5654 91.1356L108.39 88.6466L110.017 96.7969H67.1494L68.5654 91.1356ZM68.0344 124.453H108.993L107.367 138.281H69.6467L68.0344 124.453ZM71.6131 154.875L70.3132 143.813H106.701L105.401 154.875H71.6131ZM109.629 118.922H67.3706L66.7207 113.391H110.279L109.629 118.922Z" fill="#001833"/>
<path id="Vector_3" d="M24.8906 85.7344H30.4219V91.2656H24.8906V85.7344Z" fill="#001833"/>
<path id="Vector_4" d="M35.9531 85.7344H52.5469V91.2656H35.9531V85.7344Z" fill="#001833"/>
<path id="Vector_5" d="M118.922 154.875H141.047V160.406H118.922V154.875Z" fill="#001833"/>
<path id="Vector_6" d="M146.578 154.875H152.109V160.406H146.578V154.875Z" fill="#001833"/>
</g>
</g>
</svg>
