<svg width="43" height="13" viewBox="0 0 43 13" fill="none" xmlns="http://www.w3.org/2000/svg">
<g id="visa (1)">
<path id="Path" d="M15.5488 12.6597L17.7028 0.408386H21.0683L18.9817 12.6597H15.5488Z" fill="#3C58BF"/>
<path id="Path_2" d="M15.5488 12.6597L18.3086 0.408386H21.0683L18.9817 12.6597H15.5488Z" fill="#293688"/>
<path id="Path_3" d="M31.1649 0.544502C30.4918 0.272251 29.4148 0 28.0686 0C24.7031 0 22.2799 1.70157 22.2799 4.15183C22.2799 5.98953 23.9626 6.9424 25.3089 7.55497C26.6551 8.16753 27.0589 8.57591 27.0589 9.12041C27.0589 9.93717 25.982 10.3455 25.0396 10.3455C23.6934 10.3455 22.953 10.1414 21.8087 9.66492L21.3375 9.46073L20.8663 12.2513C21.6741 12.5916 23.1549 12.9319 24.7031 12.9319C28.2705 12.9319 30.6264 11.2304 30.6264 8.64397C30.6264 7.21466 29.7514 6.12565 27.7321 5.24083C26.5205 4.62827 25.78 4.28796 25.78 3.67539C25.78 3.13089 26.3858 2.58639 27.7321 2.58639C28.8763 2.58639 29.6841 2.79057 30.2899 3.06283L30.6264 3.19895L31.1649 0.544502Z" fill="#3C58BF"/>
<path id="Path_4" d="M31.1649 0.544502C30.4918 0.272251 29.4148 0 28.0686 0C24.7031 0 22.8857 1.70157 22.8857 4.15183C22.8857 5.98953 23.9626 6.9424 25.3089 7.55497C26.6551 8.16753 27.0589 8.57591 27.0589 9.12041C27.0589 9.93717 25.982 10.3455 25.0396 10.3455C23.6934 10.3455 22.953 10.1414 21.8087 9.66492L21.3375 9.46073L20.8663 12.2513C21.6741 12.5916 23.1549 12.9319 24.7031 12.9319C28.2705 12.9319 30.6264 11.2304 30.6264 8.64397C30.6264 7.21466 29.7514 6.12565 27.7321 5.24083C26.5205 4.62827 25.78 4.28796 25.78 3.67539C25.78 3.13089 26.3858 2.58639 27.7321 2.58639C28.8763 2.58639 29.6841 2.79057 30.2899 3.06283L30.6264 3.19895L31.1649 0.544502Z" fill="#293688"/>
<path id="Shape" fill-rule="evenodd" clip-rule="evenodd" d="M35.2036 1.2932C35.5401 0.476449 36.1459 0.408386 36.9537 0.408386H39.5788L42.4059 12.6597H39.1749L38.7711 10.6178H34.4632L33.7901 12.6597H30.1553L35.2036 1.2932ZM36.7517 4.96871C36.7517 4.96871 35.6074 7.96347 35.4055 8.57603V8.6441H38.2325C38.0979 7.96347 37.4248 4.90064 37.4248 4.90064L37.2229 3.74357C37.0209 4.22001 36.7517 4.96871 36.7517 4.96871Z" fill="#3C58BF"/>
<path id="Shape_2" fill-rule="evenodd" clip-rule="evenodd" d="M36.0113 1.2932C36.3479 0.476449 36.9537 0.408386 37.7614 0.408386H39.5788L42.4059 12.6597H39.1749L38.7711 10.6178H34.4632L33.7901 12.6597H30.1553L36.0113 1.2932ZM36.7517 4.96871C36.7517 4.96871 35.6747 7.89541 35.4055 8.57603V8.6441H38.2325C38.0979 7.96347 37.4248 4.90064 37.4248 4.90064L37.2229 3.74357C37.0209 4.22001 36.7517 4.96871 36.7517 4.96871Z" fill="#293688"/>
<path id="Path_5" d="M9.35618 8.98429L9.01963 7.21466C8.41383 5.17277 6.46181 2.9267 4.30786 1.8377L7.33685 12.7277H10.9716L16.4238 0.47644H12.789L9.35618 8.98429Z" fill="#3C58BF"/>
<path id="Path_6" d="M9.35618 8.98429L9.01963 7.21466C8.41383 5.17277 6.46181 2.9267 4.30786 1.8377L7.33685 12.7277H10.9716L16.4238 0.47644H13.4621L9.35618 8.98429Z" fill="#293688"/>
<path id="Path_7" d="M0 0.408386L0.605798 0.544512C4.9137 1.56545 7.87538 4.15184 9.01967 7.21466L7.80807 1.42933C7.60614 0.612575 7.00034 0.408386 6.25992 0.408386H0V0.408386Z" fill="#FFBC00"/>
<path id="Path_8" d="M0 0.408386C4.3079 1.42933 7.87538 4.08378 9.01967 7.1466L7.87538 2.31414C7.67345 1.49739 7.00034 1.02095 6.25992 1.02095L0 0.408386Z" fill="#F7981D"/>
<path id="Path_9" d="M0 0.408386C4.3079 1.42933 7.87538 4.08378 9.01967 7.1466L8.21194 4.49215C8.01 3.6754 7.74076 2.85865 6.79841 2.51833L0 0.408386Z" fill="#ED7C00"/>
<g id="Group">
<path id="Path_10" d="M12.7218 8.57587L10.4332 6.26174L9.35625 8.84812L9.08701 7.14655C8.48121 5.10467 6.52919 2.8586 4.37524 1.76959L7.40424 12.6596H11.039L12.7218 8.57587Z" fill="#051244"/>
<path id="Path_11" d="M18.9818 12.6596L16.0874 9.66479L15.549 12.6596H18.9818Z" fill="#051244"/>
<path id="Path_12" d="M26.7225 8.4397C26.9918 8.71195 27.1264 8.91614 27.0591 9.18839C27.0591 10.0051 25.9821 10.4135 25.0397 10.4135C23.6935 10.4135 22.9531 10.2093 21.8088 9.73289L21.3376 9.5287L20.8665 12.3193C21.6742 12.6596 23.155 12.9999 24.7032 12.9999C26.8571 12.9999 28.6072 12.3873 29.6169 11.2983L26.7225 8.4397Z" fill="#051244"/>
<path id="Path_13" d="M30.6266 12.6595H33.7902L34.4633 10.6176H38.7712L39.1751 12.6595H42.406L41.2617 7.69093L37.2231 3.74329L37.425 4.83229C37.425 4.83229 38.0981 7.89512 38.2327 8.57575H35.4057C35.6749 7.89512 36.7519 4.96842 36.7519 4.96842C36.7519 4.96842 37.0211 4.21973 37.2231 3.74329" fill="#051244"/>
</g>
</g>
</svg>
